Coordinates
version=1
nRows=21
nColumns=34
inDegrees=yes
inDegrees=no

Units are S.I. units (second, meters, Newtons, ...)
If the header above contains a line with 'inDegrees', this indicates whether rotational values are in degrees (yes) or radians (no).

endheader
time	pelvis_tilt	pelvis_list	pelvis_rotation	pelvis_tx	pelvis_ty	pelvis_tz	hip_flexion_r	hip_adduction_r	hip_rotation_r	knee_angle_r	ankle_angle_r	subtalar_angle_r	mtp_angle_r	hip_flexion_l	hip_adduction_l	hip_rotation_l	knee_angle_l	ankle_angle_l	subtalar_angle_l	mtp_angle_l	lumbar_extension	lumbar_bending	lumbar_rotation	arm_flex_r	arm_add_r	arm_rot_r	elbow_flex_r	pro_sup_r	arm_flex_l	arm_add_l	arm_rot_l	elbow_flex_l	pro_sup_l
6.750000 0.120715 0.029899 -0.092088 -0.011908 0.008540 -0.003680 1.435192 -0.010602 -0.274168 0.684458 -0.291298 0.036377 0.000000 1.443803 -0.122679 -0.372964 0.873190 -0.004447 0.064041 0.000000 -0.896659 0.177452 -0.237343 0.110292 -0.203263 0.124420 1.520642 1.667902 1.717259 0.094844 0.850104 0.701124 1.300463
6.766667 0.145370 0.026557 -0.106609 -0.012149 0.008648 -0.003722 1.396511 0.010700 -0.267629 0.668556 -0.302973 0.005150 0.000000 1.401551 -0.126377 -0.376895 0.840490 -0.014651 0.062347 0.000000 -0.892955 0.174367 -0.262827 0.081492 -0.226042 0.167720 1.460060 1.678063 1.613981 0.069970 0.837962 0.718728 1.286424
6.783333 0.164397 0.016144 -0.130437 -0.012321 0.008499 -0.003741 1.379760 0.043899 -0.262069 0.654058 -0.312246 -0.012706 0.000000 1.388138 -0.143816 -0.364236 0.828058 -0.031892 0.059444 0.000000 -0.876032 0.169084 -0.285428 0.028265 -0.263479 0.213170 1.445588 1.683078 1.504123 0.029604 0.824523 0.757001 1.275472
6.800000 0.193789 0.010062 -0.141828 -0.012470 0.008502 -0.003796 1.340423 0.061074 -0.244440 0.616397 -0.339864 -0.023187 0.000000 1.358879 -0.146179 -0.363222 0.822761 -0.041515 0.055972 0.000000 -0.870168 0.159947 -0.309335 0.000657 -0.311967 0.272352 1.431040 1.679167 1.404999 0.010741 0.793723 0.778057 1.262918
6.816667 0.225046 0.012461 -0.171288 -0.012650 0.008544 -0.003688 1.304628 0.098667 -0.222680 0.577473 -0.374452 -0.039755 0.000000 1.319054 -0.167261 -0.374993 0.794723 -0.056853 0.065442 0.000000 -0.872046 0.125287 -0.319194 -0.026156 -0.356202 0.316463 1.450571 1.670227 1.314545 -0.016509 0.777906 0.807961 1.256600
6.833333 0.257549 0.009138 -0.191432 -0.012679 0.008594 -0.003761 1.271348 0.120302 -0.196253 0.559296 -0.403824 -0.059185 0.000000 1.278795 -0.180446 -0.381674 0.777171 -0.065949 0.074243 0.000000 -0.867574 0.106154 -0.339431 -0.058862 -0.411438 0.364031 1.467901 1.652490 1.221287 -0.056870 0.748294 0.853495 1.245814
6.850000 0.280539 0.010813 -0.215728 -0.012736 0.008555 -0.003731 1.246496 0.146665 -0.169921 0.547504 -0.429070 -0.070428 0.000000 1.249258 -0.200170 -0.392940 0.766930 -0.069680 0.088386 0.000000 -0.851574 0.079095 -0.346375 -0.103973 -0.464010 0.400122 1.491484 1.641330 1.145451 -0.095364 0.740227 0.876544 1.240451
6.866667 0.297575 0.006847 -0.220032 -0.012712 0.008584 -0.003733 1.230205 0.155288 -0.147106 0.565290 -0.429994 -0.098903 0.000000 1.230190 -0.202848 -0.395330 0.770791 -0.069277 0.093229 0.000000 -0.832578 0.069121 -0.346598 -0.132329 -0.524059 0.432625 1.533570 1.632690 1.080308 -0.128767 0.748951 0.894251 1.237702
6.883333 0.308235 0.008163 -0.219770 -0.012694 0.008619 -0.003825 1.221475 0.153344 -0.124695 0.575428 -0.429920 -0.110246 0.000000 1.217891 -0.197331 -0.397133 0.773867 -0.067047 0.094021 0.000000 -0.809997 0.062039 -0.343514 -0.169466 -0.576548 0.450220 1.552829 1.628531 1.025648 -0.155907 0.755064 0.901365 1.236173
6.900000 0.323085 -0.000059 -0.222040 -0.012886 0.008606 -0.003882 1.208400 0.151650 -0.109542 0.598853 -0.409042 -0.185554 0.000000 1.202492 -0.192647 -0.390086 0.768754 -0.072311 0.088592 0.000000 -0.803549 0.064453 -0.331529 -0.167032 -0.634088 0.469382 1.606671 1.620408 0.989000 -0.187765 0.753867 0.917019 1.233171
6.916667 0.336755 -0.002402 -0.223448 -0.012887 0.008677 -0.003848 1.192047 0.153827 -0.109756 0.603847 -0.396358 -0.229877 0.000000 1.179021 -0.189729 -0.402458 0.738738 -0.082178 0.100610 0.000000 -0.794547 0.059036 -0.314758 -0.166964 -0.677766 0.471663 1.657553 1.612693 0.951162 -0.216565 0.747293 0.930497 1.230639
6.933333 0.361842 -0.011718 -0.225015 -0.013142 0.008674 -0.003769 1.156515 0.159576 -0.124727 0.576144 -0.392598 -0.219336 0.000000 1.149362 -0.195983 -0.407972 0.707494 -0.104455 0.122514 0.000000 -0.802973 0.053592 -0.290210 -0.159627 -0.710930 0.464925 1.713509 1.606972 0.937358 -0.248262 0.733251 0.936614 1.228037
6.950000 0.398310 -0.018815 -0.206482 -0.013211 0.008700 -0.003779 1.114702 0.151196 -0.139335 0.552346 -0.401843 -0.217212 0.000000 1.110280 -0.183957 -0.409741 0.691279 -0.118673 0.133758 0.000000 -0.821497 0.055571 -0.277352 -0.147364 -0.730611 0.457629 1.762358 1.603606 0.943160 -0.283090 0.727116 0.931259 1.225411
6.966667 0.414251 -0.020388 -0.186835 -0.013112 0.008746 -0.003838 1.091198 0.136889 -0.148789 0.539404 -0.408078 -0.213081 0.000000 1.089962 -0.165392 -0.407778 0.680015 -0.127250 0.141056 0.000000 -0.815943 0.060756 -0.259163 -0.133283 -0.738876 0.447424 1.781476 1.601848 0.944761 -0.310276 0.720138 0.924366 1.223378
6.983333 0.435320 -0.017893 -0.149722 -0.012986 0.008755 -0.003853 1.061004 0.115281 -0.155454 0.501679 -0.433260 -0.157645 0.000000 1.073040 -0.134567 -0.409211 0.699162 -0.117452 0.139624 0.000000 -0.809145 0.071705 -0.245468 -0.110953 -0.743422 0.437399 1.802714 1.599118 0.948021 -0.324420 0.705424 0.919910 1.218946
7.000000 0.450759 -0.008355 -0.112433 -0.013008 0.008749 -0.003863 1.032734 0.091459 -0.157660 0.467420 -0.470331 -0.077445 0.000000 1.060495 -0.100198 -0.416500 0.711144 -0.115855 0.135692 0.000000 -0.797873 0.079012 -0.229548 -0.090807 -0.738822 0.407594 1.823320 1.589558 0.950134 -0.333457 0.655830 0.934018 1.204602
7.016667 0.459328 -0.007037 -0.097610 -0.012889 0.008802 -0.003937 1.017966 0.080944 -0.156358 0.465299 -0.475609 -0.038571 0.000000 1.046872 -0.082671 -0.410655 0.700823 -0.126934 0.123505 0.000000 -0.778902 0.084741 -0.194212 -0.050009 -0.734949 0.379604 1.814710 1.586068 0.961206 -0.335960 0.635946 0.934541 1.200677
7.033333 0.447691 -0.006959 -0.083466 -0.012966 0.008748 -0.003964 1.032199 0.068534 -0.167700 0.459910 -0.480075 -0.010793 0.000000 1.063841 -0.067079 -0.395100 0.718860 -0.117881 0.111460 0.000000 -0.748968 0.099944 -0.139797 -0.022543 -0.734606 0.335050 1.810722 1.578772 0.963901 -0.317574 0.573250 0.965119 1.192040
7.050000 0.440813 -0.008405 -0.075857 -0.012992 0.008647 -0.003981 1.046782 0.058006 -0.168744 0.472274 -0.477161 0.002368 0.000000 1.081075 -0.059332 -0.387656 0.731154 -0.119216 0.098522 0.000000 -0.721118 0.110416 -0.073855 0.014268 -0.747040 0.307164 1.797628 1.576072 0.981385 -0.295977 0.557367 0.991580 1.192078
7.066667 0.434421 -0.011048 -0.082135 -0.013061 0.008622 -0.003992 1.068468 0.061749 -0.146350 0.503903 -0.466505 -0.008425 0.000000 1.093373 -0.063965 -0.386493 0.723956 -0.136375 0.090162 0.000000 -0.712454 0.116005 0.001960 0.044566 -0.755185 0.246790 1.802333 1.568748 1.010178 -0.277579 0.531439 1.023809 1.198567
7.083333 0.436287 -0.010946 -0.086606 -0.013079 0.008675 -0.004038 1.072529 0.062115 -0.136278 0.519610 -0.460807 -0.007194 0.000000 1.085491 -0.062033 -0.387969 0.693963 -0.161538 0.085030 0.000000 -0.714032 0.118426 0.069542 0.103862 -0.772216 0.219695 1.783479 1.567019 1.048100 -0.257890 0.529481 1.046720 1.201593
